<?xml version="1.0" standalone="no"?>
<!DOCTYPE svg PUBLIC "-//W3C//DTD SVG 20010904//EN"
 "http://www.w3.org/TR/2001/REC-SVG-20010904/DTD/svg10.dtd">
<svg version="1.0" xmlns="http://www.w3.org/2000/svg"
 width="115" height="70" viewBox="0 0 623.000000 275.000000"
 preserveAspectRatio="xMidYMid meet">

<g transform="translate(0.000000,275.000000) scale(0.100000,-0.100000)"
fill="#000000" stroke="none">
<path d="M4403 2110 c-49 -20 -54 -71 -19 -198 13 -48 28 -105 32 -127 7 -30
14 -40 28 -40 16 0 22 11 32 60 6 33 21 97 33 143 18 67 20 88 11 116 -15 48
-64 67 -117 46z"/>
<path d="M4902 2056 c-156 -40 -254 -183 -223 -327 24 -111 81 -166 244 -234
158 -66 206 -94 235 -137 21 -32 24 -46 20 -98 -7 -104 -65 -155 -178 -154
-142 2 -236 79 -273 224 -11 43 -19 56 -36 58 -21 3 -22 2 -19 -145 l3 -148
35 -3 c19 -1 79 -12 132 -23 217 -46 364 -17 461 90 56 62 70 103 71 201 0
102 -20 149 -87 204 -44 36 -147 90 -240 127 -148 58 -193 104 -185 190 9 86
69 129 181 129 117 0 217 -78 233 -181 4 -21 12 -40 19 -43 27 -10 36 21 33
120 -3 97 -3 99 -28 102 -14 2 -61 15 -105 28 -97 31 -219 39 -293 20z"/>
<path d="M1274 2036 c-9 -23 4 -36 35 -36 16 0 34 -6 40 -14 8 -9 10 -133 9
-437 l-3 -424 -32 -3 c-40 -4 -61 -26 -43 -47 11 -13 61 -15 374 -13 l361 3 3
138 c3 138 3 138 -20 135 -18 -2 -25 -14 -37 -62 -10 -44 -24 -69 -52 -97 -48
-48 -94 -60 -216 -57 l-98 3 -3 424 c-2 314 1 427 10 438 6 8 23 13 37 13 55
-4 63 -1 59 23 -3 22 -4 22 -211 25 -175 2 -208 0 -213 -12z"/>
<path d="M2134 2035 c-8 -20 4 -35 27 -35 11 0 29 -5 40 -10 18 -10 19 -26 19
-428 0 -229 -4 -422 -8 -429 -4 -6 -23 -13 -42 -15 -37 -3 -54 -33 -28 -49 7
-5 95 -9 194 -9 149 0 184 3 194 15 18 21 -3 43 -43 47 l-32 3 -3 424 c-2 441
-1 458 39 448 25 -7 54 16 46 37 -6 14 -30 16 -202 16 -162 0 -197 -3 -201
-15z"/>
<path d="M2664 2035 c-8 -21 4 -35 30 -35 12 0 30 -6 39 -12 16 -12 17 -47 15
-438 -3 -416 -3 -425 -23 -428 -54 -8 -65 -13 -65 -32 0 -12 9 -22 23 -25 12
-3 180 -4 372 -3 l350 3 0 135 c0 132 -1 135 -22 138 -17 3 -24 -3 -28 -25
-16 -77 -29 -106 -60 -136 -46 -45 -92 -57 -214 -57 l-101 0 0 429 c0 466 -1
459 55 449 32 -6 60 14 52 36 -6 14 -30 16 -212 16 -171 0 -207 -2 -211 -15z"/>
<path d="M3374 2035 c-8 -20 -1 -27 38 -40 28 -9 52 -43 180 -255 l147 -245
-2 -185 -2 -185 -50 -5 c-42 -4 -50 -8 -53 -27 -5 -32 14 -34 243 -31 l200 3
0 25 c0 23 -5 25 -50 30 l-50 5 -3 197 -2 197 121 218 c67 120 132 228 146
241 13 12 35 22 49 22 21 0 25 4 22 23 -3 21 -7 22 -126 25 -105 2 -123 0
-129 -13 -9 -24 13 -40 52 -36 24 2 37 -2 41 -13 6 -14 -161 -325 -191 -355
-7 -7 -20 -11 -28 -8 -23 9 -220 344 -213 362 4 12 14 14 38 10 39 -7 61 6 56
31 -3 18 -17 19 -216 22 -185 2 -213 0 -218 -13z"/>
<path d="M548 1593 c-10 -2 -18 -8 -18 -13 0 -4 -10 -10 -23 -14 -30 -7 -63
-69 -66 -123 -3 -43 19 -103 46 -125 10 -8 7 5 -9 37 -22 44 -24 54 -14 91 6
22 18 49 26 60 61 81 170 69 200 -22 l12 -36 23 35 c69 101 221 59 240 -67 14
-89 -33 -143 -204 -236 -160 -87 -171 -107 -15 -27 172 88 211 117 236 175 65
147 -87 302 -224 229 l-46 -25 -22 23 c-13 14 -27 22 -31 19 -5 -3 -9 0 -9 6
0 7 -8 9 -20 5 -12 -4 -27 -1 -35 5 -11 9 -15 9 -15 1 0 -6 -5 -11 -11 -11 -5
0 -7 5 -4 10 3 6 5 9 3 9 -2 -1 -11 -3 -20 -6z"/>
<path d="M1276 901 c-3 -5 3 -11 14 -14 19 -5 20 -14 20 -172 0 -158 -1 -167
-20 -172 -42 -11 -5 -23 71 -23 74 0 104 11 59 23 -18 5 -20 14 -20 81 l0 76
36 0 c31 0 37 -4 47 -30 19 -49 27 -35 27 45 0 80 -8 94 -27 45 -10 -26 -16
-30 -47 -30 l-36 0 0 81 0 82 57 -7 c57 -7 93 -27 93 -52 0 -7 5 -16 10 -19 6
-4 10 13 10 44 l0 51 -144 0 c-80 0 -147 -4 -150 -9z"/>
<path d="M1630 901 c0 -5 7 -11 15 -15 22 -8 22 -334 0 -342 -44 -17 -2 -24
128 -22 l142 3 3 54 c2 40 0 52 -10 49 -7 -3 -14 -14 -16 -25 -5 -35 -36 -54
-89 -56 l-48 -2 -3 173 c-2 167 -2 172 18 172 11 0 20 5 20 10 0 6 -33 10 -80
10 -44 0 -80 -4 -80 -9z"/>
<path d="M2020 888 c-60 -31 -90 -88 -90 -174 0 -124 70 -194 196 -194 34 0
75 5 91 11 146 55 150 304 6 364 -55 23 -150 19 -203 -7z m155 -4 c61 -24 75
-247 18 -314 -19 -24 -33 -30 -63 -30 -69 0 -100 52 -100 169 0 123 31 181 94
181 19 0 42 -3 51 -6z"/>
<path d="M2340 901 c0 -5 6 -11 14 -14 7 -3 34 -61 59 -129 88 -238 88 -238
105 -238 14 0 29 34 65 145 27 80 51 145 55 145 4 0 32 -64 62 -142 37 -95 61
-144 72 -146 13 -2 28 32 73 170 33 100 65 180 76 190 10 9 19 19 19 22 0 10
-89 6 -95 -4 -3 -5 3 -10 14 -10 12 0 21 -3 21 -7 0 -25 -76 -233 -85 -230 -5
2 -29 54 -52 116 -39 106 -41 114 -22 118 10 3 16 9 13 14 -7 12 -141 11 -149
-1 -3 -5 1 -10 10 -10 8 0 18 -7 21 -15 7 -17 -54 -205 -66 -205 -13 0 -17 8
-55 115 -34 94 -35 97 -15 102 45 12 15 23 -60 23 -44 0 -80 -4 -80 -9z"/>
<path d="M2990 901 c0 -5 7 -11 15 -15 12 -4 15 -33 15 -171 0 -138 -3 -167
-15 -171 -43 -17 0 -24 140 -24 l155 0 0 55 c0 56 -15 74 -26 31 -10 -42 -38
-59 -101 -60 l-58 -1 0 80 0 80 35 0 c28 0 37 -5 48 -27 22 -46 32 -32 32 41
0 67 -14 102 -26 64 -12 -39 -22 -48 -55 -48 l-34 0 -3 79 -3 79 52 -7 c66 -9
87 -20 95 -51 10 -42 24 -28 24 25 l0 50 -145 0 c-80 0 -145 -4 -145 -9z"/>
<path d="M3360 902 c0 -5 7 -12 15 -16 13 -4 15 -33 15 -172 0 -157 -1 -166
-20 -171 -42 -11 -5 -23 71 -23 74 0 104 11 59 23 -18 5 -20 14 -20 81 0 42 4
76 9 76 4 0 22 -5 38 -10 35 -13 53 -46 53 -99 0 -49 24 -71 78 -71 41 0 56
13 28 23 -8 3 -17 27 -21 56 -7 52 -37 94 -78 107 -18 6 -17 8 12 20 39 17 66
73 53 112 -17 53 -52 67 -178 71 -72 2 -114 -1 -114 -7z m194 -45 c13 -16 17
-32 13 -64 -6 -54 -21 -73 -58 -73 l-29 0 0 86 0 86 28 -6 c15 -4 35 -17 46
-29z"/>
<path d="M3932 890 c-38 -23 -56 -62 -48 -106 8 -39 38 -67 101 -95 92 -39
118 -86 75 -129 -44 -44 -140 -7 -155 60 -4 17 -11 30 -16 30 -12 0 -12 -107
1 -115 22 -14 175 -16 199 -3 40 22 63 62 63 108 -1 54 -18 73 -114 121 -84
42 -100 65 -74 104 13 20 25 25 59 25 47 0 78 -23 92 -68 10 -33 25 -17 25 27
0 37 -2 39 -44 50 -68 17 -127 14 -164 -9z"/>
<path d="M4196 901 c-3 -5 3 -11 14 -14 19 -5 20 -14 20 -172 0 -158 -1 -167
-20 -172 -11 -3 -17 -9 -14 -14 7 -12 151 -11 159 1 3 6 -3 10 -14 10 -26 0
-33 27 -29 105 l3 60 75 0 75 0 0 -80 c0 -76 -1 -80 -23 -83 -12 -2 -20 -8
-17 -13 8 -12 152 -12 160 1 3 6 0 10 -8 10 -24 0 -27 23 -27 175 0 152 3 175
27 175 8 0 11 5 8 10 -8 13 -152 13 -160 1 -3 -5 5 -11 17 -13 22 -3 23 -8 23
-78 l0 -75 -75 0 -75 0 -3 54 c-4 74 4 101 29 101 11 0 17 5 14 10 -8 12 -152
13 -159 1z"/>
<path d="M4710 888 c-24 -13 -52 -35 -63 -49 -43 -59 -41 -188 4 -250 68 -96
269 -92 335 8 42 63 37 191 -8 249 -51 64 -183 85 -268 42z m169 -22 c44 -47
47 -237 4 -293 -14 -20 -30 -29 -56 -31 -78 -7 -107 40 -107 173 0 131 25 174
101 175 25 0 42 -7 58 -24z"/>
<path d="M5070 901 c0 -5 7 -11 15 -15 12 -4 15 -33 15 -171 0 -138 -3 -167
-15 -171 -36 -14 -9 -24 65 -24 75 0 105 11 60 23 -17 4 -20 14 -20 70 l0 64
60 7 c47 6 68 14 93 36 28 25 32 35 32 78 0 59 -20 87 -74 102 -45 12 -231 13
-231 1z m173 -20 c55 -21 56 -132 3 -167 -44 -28 -56 -11 -56 80 0 100 3 106
53 87z"/>
</g>
</svg>
